<?xml version="1.0" encoding="utf-8" standalone="no"?>
<!DOCTYPE svg PUBLIC "-//W3C//DTD SVG 1.1//EN"
  "http://www.w3.org/Graphics/SVG/1.1/DTD/svg11.dtd">
<svg xmlns:xlink="http://www.w3.org/1999/xlink" width="460.8pt" height="345.6pt" viewBox="0 0 460.8 345.6" xmlns="http://www.w3.org/2000/svg" version="1.1">
 <metadata>
  <rdf:RDF xmlns:dc="http://purl.org/dc/elements/1.1/" xmlns:cc="http://creativecommons.org/ns#" xmlns:rdf="http://www.w3.org/1999/02/22-rdf-syntax-ns#">
   <cc:Work>
    <dc:type rdf:resource="http://purl.org/dc/dcmitype/StillImage"/>
    <dc:date>2023-03-21T16:21:58.777371</dc:date>
    <dc:format>image/svg+xml</dc:format>
    <dc:creator>
     <cc:Agent>
      <dc:title>Matplotlib v3.7.0, https://matplotlib.org/</dc:title>
     </cc:Agent>
    </dc:creator>
   </cc:Work>
  </rdf:RDF>
 </metadata>
 <defs>
  <style type="text/css">*{stroke-linejoin: round; stroke-linecap: butt}</style>
 </defs>
 <g id="figure_1">
  <g id="patch_1">
   <path d="M 0 345.6 
L 460.8 345.6 
L 460.8 0 
L 0 0 
L 0 345.6 
z
" style="fill: none"/>
  </g>
  <g id="axes_1">
   <g id="patch_2">
    <path d="M 57.6 307.584 
L 414.72 307.584 
L 414.72 41.472 
L 57.6 41.472 
L 57.6 307.584 
z
" style="fill: none"/>
   </g>
   <g id="LineCollection_1">
    <path d="M 107.364074 88.855979 
L 115.565114 189.760356 
" clip-path="url(#p3b7cf2bcb6)" style="fill: none; stroke: #000000; stroke-width: 0.5"/>
    <path d="M 107.364074 88.855979 
L 125.138335 283.281614 
" clip-path="url(#p3b7cf2bcb6)" style="fill: none; stroke: #000000; stroke-width: 0.5"/>
    <path d="M 107.364074 88.855979 
L 88.589752 152.419686 
" clip-path="url(#p3b7cf2bcb6)" style="fill: none; stroke: #000000; stroke-width: 0.5"/>
    <path d="M 107.364074 88.855979 
L 162.468218 106.783636 
" clip-path="url(#p3b7cf2bcb6)" style="fill: none; stroke: #000000; stroke-width: 0.5"/>
    <path d="M 107.364074 88.855979 
L 173.004794 194.600143 
" clip-path="url(#p3b7cf2bcb6)" style="fill: none; stroke: #000000; stroke-width: 0.5"/>
    <path d="M 107.364074 88.855979 
L 95.281675 245.534451 
" clip-path="url(#p3b7cf2bcb6)" style="fill: none; stroke: #000000; stroke-width: 0.5"/>
    <path d="M 107.364074 88.855979 
L 144.466407 170.615025 
" clip-path="url(#p3b7cf2bcb6)" style="fill: none; stroke: #000000; stroke-width: 0.5"/>
    <path d="M 107.364074 88.855979 
L 153.992546 263.051619 
" clip-path="url(#p3b7cf2bcb6)" style="fill: none; stroke: #000000; stroke-width: 0.5"/>
    <path d="M 107.364074 88.855979 
L 135.718256 67.813165 
" clip-path="url(#p3b7cf2bcb6)" style="fill: none; stroke: #000000; stroke-width: 0.5"/>
    <path d="M 107.364074 88.855979 
L 302.417516 199.739827 
" clip-path="url(#p3b7cf2bcb6)" style="fill: none; stroke: #000000; stroke-width: 0.5"/>
    <path d="M 107.364074 88.855979 
L 383.730248 184.662684 
" clip-path="url(#p3b7cf2bcb6)" style="fill: none; stroke: #000000; stroke-width: 0.5"/>
    <path d="M 115.565114 189.760356 
L 125.138335 283.281614 
" clip-path="url(#p3b7cf2bcb6)" style="fill: none; stroke: #000000; stroke-width: 0.5"/>
    <path d="M 115.565114 189.760356 
L 88.589752 152.419686 
" clip-path="url(#p3b7cf2bcb6)" style="fill: none; stroke: #000000; stroke-width: 0.5"/>
    <path d="M 115.565114 189.760356 
L 162.468218 106.783636 
" clip-path="url(#p3b7cf2bcb6)" style="fill: none; stroke: #000000; stroke-width: 0.5"/>
    <path d="M 115.565114 189.760356 
L 173.004794 194.600143 
" clip-path="url(#p3b7cf2bcb6)" style="fill: none; stroke: #000000; stroke-width: 0.5"/>
    <path d="M 115.565114 189.760356 
L 95.281675 245.534451 
" clip-path="url(#p3b7cf2bcb6)" style="fill: none; stroke: #000000; stroke-width: 0.5"/>
    <path d="M 115.565114 189.760356 
L 144.466407 170.615025 
" clip-path="url(#p3b7cf2bcb6)" style="fill: none; stroke: #000000; stroke-width: 0.5"/>
    <path d="M 115.565114 189.760356 
L 153.992546 263.051619 
" clip-path="url(#p3b7cf2bcb6)" style="fill: none; stroke: #000000; stroke-width: 0.5"/>
    <path d="M 115.565114 189.760356 
L 135.718256 67.813165 
" clip-path="url(#p3b7cf2bcb6)" style="fill: none; stroke: #000000; stroke-width: 0.5"/>
    <path d="M 115.565114 189.760356 
L 308.75788 121.595097 
" clip-path="url(#p3b7cf2bcb6)" style="fill: none; stroke: #000000; stroke-width: 0.5"/>
    <path d="M 115.565114 189.760356 
L 340.062152 184.595989 
" clip-path="url(#p3b7cf2bcb6)" style="fill: none; stroke: #000000; stroke-width: 0.5"/>
    <path d="M 115.565114 189.760356 
L 374.998723 252.613038 
" clip-path="url(#p3b7cf2bcb6)" style="fill: none; stroke: #000000; stroke-width: 0.5"/>
    <path d="M 115.565114 189.760356 
L 319.427627 266.334582 
" clip-path="url(#p3b7cf2bcb6)" style="fill: none; stroke: #000000; stroke-width: 0.5"/>
    <path d="M 115.565114 189.760356 
L 348.150926 284.491636 
" clip-path="url(#p3b7cf2bcb6)" style="fill: none; stroke: #000000; stroke-width: 0.5"/>
    <path d="M 115.565114 189.760356 
L 354.927939 96.057195 
" clip-path="url(#p3b7cf2bcb6)" style="fill: none; stroke: #000000; stroke-width: 0.5"/>
    <path d="M 115.565114 189.760356 
L 380.989806 108.06126 
" clip-path="url(#p3b7cf2bcb6)" style="fill: none; stroke: #000000; stroke-width: 0.5"/>
    <path d="M 125.138335 283.281614 
L 88.589752 152.419686 
" clip-path="url(#p3b7cf2bcb6)" style="fill: none; stroke: #000000; stroke-width: 0.5"/>
    <path d="M 125.138335 283.281614 
L 162.468218 106.783636 
" clip-path="url(#p3b7cf2bcb6)" style="fill: none; stroke: #000000; stroke-width: 0.5"/>
    <path d="M 125.138335 283.281614 
L 173.004794 194.600143 
" clip-path="url(#p3b7cf2bcb6)" style="fill: none; stroke: #000000; stroke-width: 0.5"/>
    <path d="M 125.138335 283.281614 
L 95.281675 245.534451 
" clip-path="url(#p3b7cf2bcb6)" style="fill: none; stroke: #000000; stroke-width: 0.5"/>
    <path d="M 125.138335 283.281614 
L 144.466407 170.615025 
" clip-path="url(#p3b7cf2bcb6)" style="fill: none; stroke: #000000; stroke-width: 0.5"/>
    <path d="M 125.138335 283.281614 
L 153.992546 263.051619 
" clip-path="url(#p3b7cf2bcb6)" style="fill: none; stroke: #000000; stroke-width: 0.5"/>
    <path d="M 125.138335 283.281614 
L 135.718256 67.813165 
" clip-path="url(#p3b7cf2bcb6)" style="fill: none; stroke: #000000; stroke-width: 0.5"/>
    <path d="M 125.138335 283.281614 
L 348.150926 284.491636 
" clip-path="url(#p3b7cf2bcb6)" style="fill: none; stroke: #000000; stroke-width: 0.5"/>
    <path d="M 125.138335 283.281614 
L 330.420215 64.564364 
" clip-path="url(#p3b7cf2bcb6)" style="fill: none; stroke: #000000; stroke-width: 0.5"/>
    <path d="M 88.589752 152.419686 
L 162.468218 106.783636 
" clip-path="url(#p3b7cf2bcb6)" style="fill: none; stroke: #000000; stroke-width: 0.5"/>
    <path d="M 88.589752 152.419686 
L 173.004794 194.600143 
" clip-path="url(#p3b7cf2bcb6)" style="fill: none; stroke: #000000; stroke-width: 0.5"/>
    <path d="M 88.589752 152.419686 
L 95.281675 245.534451 
" clip-path="url(#p3b7cf2bcb6)" style="fill: none; stroke: #000000; stroke-width: 0.5"/>
    <path d="M 88.589752 152.419686 
L 144.466407 170.615025 
" clip-path="url(#p3b7cf2bcb6)" style="fill: none; stroke: #000000; stroke-width: 0.5"/>
    <path d="M 88.589752 152.419686 
L 153.992546 263.051619 
" clip-path="url(#p3b7cf2bcb6)" style="fill: none; stroke: #000000; stroke-width: 0.5"/>
    <path d="M 88.589752 152.419686 
L 135.718256 67.813165 
" clip-path="url(#p3b7cf2bcb6)" style="fill: none; stroke: #000000; stroke-width: 0.5"/>
    <path d="M 88.589752 152.419686 
L 340.062152 184.595989 
" clip-path="url(#p3b7cf2bcb6)" style="fill: none; stroke: #000000; stroke-width: 0.5"/>
    <path d="M 88.589752 152.419686 
L 319.427627 266.334582 
" clip-path="url(#p3b7cf2bcb6)" style="fill: none; stroke: #000000; stroke-width: 0.5"/>
    <path d="M 162.468218 106.783636 
L 173.004794 194.600143 
" clip-path="url(#p3b7cf2bcb6)" style="fill: none; stroke: #000000; stroke-width: 0.5"/>
    <path d="M 162.468218 106.783636 
L 95.281675 245.534451 
" clip-path="url(#p3b7cf2bcb6)" style="fill: none; stroke: #000000; stroke-width: 0.5"/>
    <path d="M 162.468218 106.783636 
L 144.466407 170.615025 
" clip-path="url(#p3b7cf2bcb6)" style="fill: none; stroke: #000000; stroke-width: 0.5"/>
    <path d="M 162.468218 106.783636 
L 153.992546 263.051619 
" clip-path="url(#p3b7cf2bcb6)" style="fill: none; stroke: #000000; stroke-width: 0.5"/>
    <path d="M 162.468218 106.783636 
L 135.718256 67.813165 
" clip-path="url(#p3b7cf2bcb6)" style="fill: none; stroke: #000000; stroke-width: 0.5"/>
    <path d="M 162.468218 106.783636 
L 374.998723 252.613038 
" clip-path="url(#p3b7cf2bcb6)" style="fill: none; stroke: #000000; stroke-width: 0.5"/>
    <path d="M 162.468218 106.783636 
L 330.420215 64.564364 
" clip-path="url(#p3b7cf2bcb6)" style="fill: none; stroke: #000000; stroke-width: 0.5"/>
    <path d="M 162.468218 106.783636 
L 383.730248 184.662684 
" clip-path="url(#p3b7cf2bcb6)" style="fill: none; stroke: #000000; stroke-width: 0.5"/>
    <path d="M 173.004794 194.600143 
L 95.281675 245.534451 
" clip-path="url(#p3b7cf2bcb6)" style="fill: none; stroke: #000000; stroke-width: 0.5"/>
    <path d="M 173.004794 194.600143 
L 144.466407 170.615025 
" clip-path="url(#p3b7cf2bcb6)" style="fill: none; stroke: #000000; stroke-width: 0.5"/>
    <path d="M 173.004794 194.600143 
L 153.992546 263.051619 
" clip-path="url(#p3b7cf2bcb6)" style="fill: none; stroke: #000000; stroke-width: 0.5"/>
    <path d="M 173.004794 194.600143 
L 135.718256 67.813165 
" clip-path="url(#p3b7cf2bcb6)" style="fill: none; stroke: #000000; stroke-width: 0.5"/>
    <path d="M 173.004794 194.600143 
L 308.75788 121.595097 
" clip-path="url(#p3b7cf2bcb6)" style="fill: none; stroke: #000000; stroke-width: 0.5"/>
    <path d="M 173.004794 194.600143 
L 374.998723 252.613038 
" clip-path="url(#p3b7cf2bcb6)" style="fill: none; stroke: #000000; stroke-width: 0.5"/>
    <path d="M 173.004794 194.600143 
L 348.150926 284.491636 
" clip-path="url(#p3b7cf2bcb6)" style="fill: none; stroke: #000000; stroke-width: 0.5"/>
    <path d="M 95.281675 245.534451 
L 144.466407 170.615025 
" clip-path="url(#p3b7cf2bcb6)" style="fill: none; stroke: #000000; stroke-width: 0.5"/>
    <path d="M 95.281675 245.534451 
L 153.992546 263.051619 
" clip-path="url(#p3b7cf2bcb6)" style="fill: none; stroke: #000000; stroke-width: 0.5"/>
    <path d="M 95.281675 245.534451 
L 135.718256 67.813165 
" clip-path="url(#p3b7cf2bcb6)" style="fill: none; stroke: #000000; stroke-width: 0.5"/>
    <path d="M 95.281675 245.534451 
L 319.427627 266.334582 
" clip-path="url(#p3b7cf2bcb6)" style="fill: none; stroke: #000000; stroke-width: 0.5"/>
    <path d="M 95.281675 245.534451 
L 354.927939 96.057195 
" clip-path="url(#p3b7cf2bcb6)" style="fill: none; stroke: #000000; stroke-width: 0.5"/>
    <path d="M 95.281675 245.534451 
L 330.420215 64.564364 
" clip-path="url(#p3b7cf2bcb6)" style="fill: none; stroke: #000000; stroke-width: 0.5"/>
    <path d="M 95.281675 245.534451 
L 380.989806 108.06126 
" clip-path="url(#p3b7cf2bcb6)" style="fill: none; stroke: #000000; stroke-width: 0.5"/>
    <path d="M 144.466407 170.615025 
L 153.992546 263.051619 
" clip-path="url(#p3b7cf2bcb6)" style="fill: none; stroke: #000000; stroke-width: 0.5"/>
    <path d="M 144.466407 170.615025 
L 135.718256 67.813165 
" clip-path="url(#p3b7cf2bcb6)" style="fill: none; stroke: #000000; stroke-width: 0.5"/>
    <path d="M 144.466407 170.615025 
L 308.75788 121.595097 
" clip-path="url(#p3b7cf2bcb6)" style="fill: none; stroke: #000000; stroke-width: 0.5"/>
    <path d="M 144.466407 170.615025 
L 374.998723 252.613038 
" clip-path="url(#p3b7cf2bcb6)" style="fill: none; stroke: #000000; stroke-width: 0.5"/>
    <path d="M 144.466407 170.615025 
L 380.989806 108.06126 
" clip-path="url(#p3b7cf2bcb6)" style="fill: none; stroke: #000000; stroke-width: 0.5"/>
    <path d="M 144.466407 170.615025 
L 302.417516 199.739827 
" clip-path="url(#p3b7cf2bcb6)" style="fill: none; stroke: #000000; stroke-width: 0.5"/>
    <path d="M 144.466407 170.615025 
L 383.730248 184.662684 
" clip-path="url(#p3b7cf2bcb6)" style="fill: none; stroke: #000000; stroke-width: 0.5"/>
    <path d="M 153.992546 263.051619 
L 135.718256 67.813165 
" clip-path="url(#p3b7cf2bcb6)" style="fill: none; stroke: #000000; stroke-width: 0.5"/>
    <path d="M 153.992546 263.051619 
L 308.75788 121.595097 
" clip-path="url(#p3b7cf2bcb6)" style="fill: none; stroke: #000000; stroke-width: 0.5"/>
    <path d="M 153.992546 263.051619 
L 340.062152 184.595989 
" clip-path="url(#p3b7cf2bcb6)" style="fill: none; stroke: #000000; stroke-width: 0.5"/>
    <path d="M 153.992546 263.051619 
L 348.150926 284.491636 
" clip-path="url(#p3b7cf2bcb6)" style="fill: none; stroke: #000000; stroke-width: 0.5"/>
    <path d="M 153.992546 263.051619 
L 354.927939 96.057195 
" clip-path="url(#p3b7cf2bcb6)" style="fill: none; stroke: #000000; stroke-width: 0.5"/>
    <path d="M 135.718256 67.813165 
L 308.75788 121.595097 
" clip-path="url(#p3b7cf2bcb6)" style="fill: none; stroke: #000000; stroke-width: 0.5"/>
    <path d="M 135.718256 67.813165 
L 380.989806 108.06126 
" clip-path="url(#p3b7cf2bcb6)" style="fill: none; stroke: #000000; stroke-width: 0.5"/>
    <path d="M 135.718256 67.813165 
L 302.417516 199.739827 
" clip-path="url(#p3b7cf2bcb6)" style="fill: none; stroke: #000000; stroke-width: 0.5"/>
    <path d="M 135.718256 67.813165 
L 383.730248 184.662684 
" clip-path="url(#p3b7cf2bcb6)" style="fill: none; stroke: #000000; stroke-width: 0.5"/>
    <path d="M 308.75788 121.595097 
L 340.062152 184.595989 
" clip-path="url(#p3b7cf2bcb6)" style="fill: none; stroke: #000000; stroke-width: 0.5"/>
    <path d="M 308.75788 121.595097 
L 374.998723 252.613038 
" clip-path="url(#p3b7cf2bcb6)" style="fill: none; stroke: #000000; stroke-width: 0.5"/>
    <path d="M 308.75788 121.595097 
L 319.427627 266.334582 
" clip-path="url(#p3b7cf2bcb6)" style="fill: none; stroke: #000000; stroke-width: 0.5"/>
    <path d="M 308.75788 121.595097 
L 348.150926 284.491636 
" clip-path="url(#p3b7cf2bcb6)" style="fill: none; stroke: #000000; stroke-width: 0.5"/>
    <path d="M 308.75788 121.595097 
L 354.927939 96.057195 
" clip-path="url(#p3b7cf2bcb6)" style="fill: none; stroke: #000000; stroke-width: 0.5"/>
    <path d="M 308.75788 121.595097 
L 330.420215 64.564364 
" clip-path="url(#p3b7cf2bcb6)" style="fill: none; stroke: #000000; stroke-width: 0.5"/>
    <path d="M 308.75788 121.595097 
L 380.989806 108.06126 
" clip-path="url(#p3b7cf2bcb6)" style="fill: none; stroke: #000000; stroke-width: 0.5"/>
    <path d="M 308.75788 121.595097 
L 302.417516 199.739827 
" clip-path="url(#p3b7cf2bcb6)" style="fill: none; stroke: #000000; stroke-width: 0.5"/>
    <path d="M 308.75788 121.595097 
L 383.730248 184.662684 
" clip-path="url(#p3b7cf2bcb6)" style="fill: none; stroke: #000000; stroke-width: 0.5"/>
    <path d="M 340.062152 184.595989 
L 374.998723 252.613038 
" clip-path="url(#p3b7cf2bcb6)" style="fill: none; stroke: #000000; stroke-width: 0.5"/>
    <path d="M 340.062152 184.595989 
L 319.427627 266.334582 
" clip-path="url(#p3b7cf2bcb6)" style="fill: none; stroke: #000000; stroke-width: 0.5"/>
    <path d="M 340.062152 184.595989 
L 348.150926 284.491636 
" clip-path="url(#p3b7cf2bcb6)" style="fill: none; stroke: #000000; stroke-width: 0.5"/>
    <path d="M 340.062152 184.595989 
L 354.927939 96.057195 
" clip-path="url(#p3b7cf2bcb6)" style="fill: none; stroke: #000000; stroke-width: 0.5"/>
    <path d="M 340.062152 184.595989 
L 330.420215 64.564364 
" clip-path="url(#p3b7cf2bcb6)" style="fill: none; stroke: #000000; stroke-width: 0.5"/>
    <path d="M 340.062152 184.595989 
L 380.989806 108.06126 
" clip-path="url(#p3b7cf2bcb6)" style="fill: none; stroke: #000000; stroke-width: 0.5"/>
    <path d="M 340.062152 184.595989 
L 302.417516 199.739827 
" clip-path="url(#p3b7cf2bcb6)" style="fill: none; stroke: #000000; stroke-width: 0.5"/>
    <path d="M 340.062152 184.595989 
L 383.730248 184.662684 
" clip-path="url(#p3b7cf2bcb6)" style="fill: none; stroke: #000000; stroke-width: 0.5"/>
    <path d="M 374.998723 252.613038 
L 319.427627 266.334582 
" clip-path="url(#p3b7cf2bcb6)" style="fill: none; stroke: #000000; stroke-width: 0.5"/>
    <path d="M 374.998723 252.613038 
L 348.150926 284.491636 
" clip-path="url(#p3b7cf2bcb6)" style="fill: none; stroke: #000000; stroke-width: 0.5"/>
    <path d="M 374.998723 252.613038 
L 354.927939 96.057195 
" clip-path="url(#p3b7cf2bcb6)" style="fill: none; stroke: #000000; stroke-width: 0.5"/>
    <path d="M 374.998723 252.613038 
L 330.420215 64.564364 
" clip-path="url(#p3b7cf2bcb6)" style="fill: none; stroke: #000000; stroke-width: 0.5"/>
    <path d="M 374.998723 252.613038 
L 380.989806 108.06126 
" clip-path="url(#p3b7cf2bcb6)" style="fill: none; stroke: #000000; stroke-width: 0.5"/>
    <path d="M 374.998723 252.613038 
L 302.417516 199.739827 
" clip-path="url(#p3b7cf2bcb6)" style="fill: none; stroke: #000000; stroke-width: 0.5"/>
    <path d="M 374.998723 252.613038 
L 383.730248 184.662684 
" clip-path="url(#p3b7cf2bcb6)" style="fill: none; stroke: #000000; stroke-width: 0.5"/>
    <path d="M 319.427627 266.334582 
L 348.150926 284.491636 
" clip-path="url(#p3b7cf2bcb6)" style="fill: none; stroke: #000000; stroke-width: 0.5"/>
    <path d="M 319.427627 266.334582 
L 354.927939 96.057195 
" clip-path="url(#p3b7cf2bcb6)" style="fill: none; stroke: #000000; stroke-width: 0.5"/>
    <path d="M 319.427627 266.334582 
L 330.420215 64.564364 
" clip-path="url(#p3b7cf2bcb6)" style="fill: none; stroke: #000000; stroke-width: 0.5"/>
    <path d="M 319.427627 266.334582 
L 380.989806 108.06126 
" clip-path="url(#p3b7cf2bcb6)" style="fill: none; stroke: #000000; stroke-width: 0.5"/>
    <path d="M 319.427627 266.334582 
L 302.417516 199.739827 
" clip-path="url(#p3b7cf2bcb6)" style="fill: none; stroke: #000000; stroke-width: 0.5"/>
    <path d="M 319.427627 266.334582 
L 383.730248 184.662684 
" clip-path="url(#p3b7cf2bcb6)" style="fill: none; stroke: #000000; stroke-width: 0.5"/>
    <path d="M 348.150926 284.491636 
L 354.927939 96.057195 
" clip-path="url(#p3b7cf2bcb6)" style="fill: none; stroke: #000000; stroke-width: 0.5"/>
    <path d="M 348.150926 284.491636 
L 330.420215 64.564364 
" clip-path="url(#p3b7cf2bcb6)" style="fill: none; stroke: #000000; stroke-width: 0.5"/>
    <path d="M 348.150926 284.491636 
L 380.989806 108.06126 
" clip-path="url(#p3b7cf2bcb6)" style="fill: none; stroke: #000000; stroke-width: 0.5"/>
    <path d="M 348.150926 284.491636 
L 302.417516 199.739827 
" clip-path="url(#p3b7cf2bcb6)" style="fill: none; stroke: #000000; stroke-width: 0.5"/>
    <path d="M 348.150926 284.491636 
L 383.730248 184.662684 
" clip-path="url(#p3b7cf2bcb6)" style="fill: none; stroke: #000000; stroke-width: 0.5"/>
    <path d="M 354.927939 96.057195 
L 330.420215 64.564364 
" clip-path="url(#p3b7cf2bcb6)" style="fill: none; stroke: #000000; stroke-width: 0.5"/>
    <path d="M 354.927939 96.057195 
L 380.989806 108.06126 
" clip-path="url(#p3b7cf2bcb6)" style="fill: none; stroke: #000000; stroke-width: 0.5"/>
    <path d="M 354.927939 96.057195 
L 302.417516 199.739827 
" clip-path="url(#p3b7cf2bcb6)" style="fill: none; stroke: #000000; stroke-width: 0.5"/>
    <path d="M 354.927939 96.057195 
L 383.730248 184.662684 
" clip-path="url(#p3b7cf2bcb6)" style="fill: none; stroke: #000000; stroke-width: 0.5"/>
    <path d="M 330.420215 64.564364 
L 380.989806 108.06126 
" clip-path="url(#p3b7cf2bcb6)" style="fill: none; stroke: #000000; stroke-width: 0.5"/>
    <path d="M 330.420215 64.564364 
L 302.417516 199.739827 
" clip-path="url(#p3b7cf2bcb6)" style="fill: none; stroke: #000000; stroke-width: 0.5"/>
    <path d="M 330.420215 64.564364 
L 383.730248 184.662684 
" clip-path="url(#p3b7cf2bcb6)" style="fill: none; stroke: #000000; stroke-width: 0.5"/>
    <path d="M 380.989806 108.06126 
L 302.417516 199.739827 
" clip-path="url(#p3b7cf2bcb6)" style="fill: none; stroke: #000000; stroke-width: 0.5"/>
    <path d="M 380.989806 108.06126 
L 383.730248 184.662684 
" clip-path="url(#p3b7cf2bcb6)" style="fill: none; stroke: #000000; stroke-width: 0.5"/>
    <path d="M 302.417516 199.739827 
L 383.730248 184.662684 
" clip-path="url(#p3b7cf2bcb6)" style="fill: none; stroke: #000000; stroke-width: 0.5"/>
   </g>
   <g id="LineCollection_2">
    <path d="M 308.75788 121.595097 
L 340.062152 184.595989 
" clip-path="url(#p3b7cf2bcb6)" style="fill: none; stroke: #000000; stroke-width: 0.5"/>
    <path d="M 308.75788 121.595097 
L 374.998723 252.613038 
" clip-path="url(#p3b7cf2bcb6)" style="fill: none; stroke: #000000; stroke-width: 0.5"/>
    <path d="M 308.75788 121.595097 
L 319.427627 266.334582 
" clip-path="url(#p3b7cf2bcb6)" style="fill: none; stroke: #000000; stroke-width: 0.5"/>
    <path d="M 308.75788 121.595097 
L 348.150926 284.491636 
" clip-path="url(#p3b7cf2bcb6)" style="fill: none; stroke: #000000; stroke-width: 0.5"/>
    <path d="M 308.75788 121.595097 
L 354.927939 96.057195 
" clip-path="url(#p3b7cf2bcb6)" style="fill: none; stroke: #000000; stroke-width: 0.5"/>
    <path d="M 308.75788 121.595097 
L 330.420215 64.564364 
" clip-path="url(#p3b7cf2bcb6)" style="fill: none; stroke: #000000; stroke-width: 0.5"/>
    <path d="M 308.75788 121.595097 
L 380.989806 108.06126 
" clip-path="url(#p3b7cf2bcb6)" style="fill: none; stroke: #000000; stroke-width: 0.5"/>
    <path d="M 308.75788 121.595097 
L 302.417516 199.739827 
" clip-path="url(#p3b7cf2bcb6)" style="fill: none; stroke: #000000; stroke-width: 0.5"/>
    <path d="M 308.75788 121.595097 
L 383.730248 184.662684 
" clip-path="url(#p3b7cf2bcb6)" style="fill: none; stroke: #000000; stroke-width: 0.5"/>
    <path d="M 340.062152 184.595989 
L 374.998723 252.613038 
" clip-path="url(#p3b7cf2bcb6)" style="fill: none; stroke: #000000; stroke-width: 0.5"/>
    <path d="M 340.062152 184.595989 
L 319.427627 266.334582 
" clip-path="url(#p3b7cf2bcb6)" style="fill: none; stroke: #000000; stroke-width: 0.5"/>
    <path d="M 340.062152 184.595989 
L 348.150926 284.491636 
" clip-path="url(#p3b7cf2bcb6)" style="fill: none; stroke: #000000; stroke-width: 0.5"/>
    <path d="M 340.062152 184.595989 
L 354.927939 96.057195 
" clip-path="url(#p3b7cf2bcb6)" style="fill: none; stroke: #000000; stroke-width: 0.5"/>
    <path d="M 340.062152 184.595989 
L 330.420215 64.564364 
" clip-path="url(#p3b7cf2bcb6)" style="fill: none; stroke: #000000; stroke-width: 0.5"/>
    <path d="M 340.062152 184.595989 
L 380.989806 108.06126 
" clip-path="url(#p3b7cf2bcb6)" style="fill: none; stroke: #000000; stroke-width: 0.5"/>
    <path d="M 340.062152 184.595989 
L 302.417516 199.739827 
" clip-path="url(#p3b7cf2bcb6)" style="fill: none; stroke: #000000; stroke-width: 0.5"/>
    <path d="M 340.062152 184.595989 
L 383.730248 184.662684 
" clip-path="url(#p3b7cf2bcb6)" style="fill: none; stroke: #000000; stroke-width: 0.5"/>
    <path d="M 374.998723 252.613038 
L 319.427627 266.334582 
" clip-path="url(#p3b7cf2bcb6)" style="fill: none; stroke: #000000; stroke-width: 0.5"/>
    <path d="M 374.998723 252.613038 
L 348.150926 284.491636 
" clip-path="url(#p3b7cf2bcb6)" style="fill: none; stroke: #000000; stroke-width: 0.5"/>
    <path d="M 374.998723 252.613038 
L 354.927939 96.057195 
" clip-path="url(#p3b7cf2bcb6)" style="fill: none; stroke: #000000; stroke-width: 0.5"/>
    <path d="M 374.998723 252.613038 
L 330.420215 64.564364 
" clip-path="url(#p3b7cf2bcb6)" style="fill: none; stroke: #000000; stroke-width: 0.5"/>
    <path d="M 374.998723 252.613038 
L 380.989806 108.06126 
" clip-path="url(#p3b7cf2bcb6)" style="fill: none; stroke: #000000; stroke-width: 0.5"/>
    <path d="M 374.998723 252.613038 
L 302.417516 199.739827 
" clip-path="url(#p3b7cf2bcb6)" style="fill: none; stroke: #000000; stroke-width: 0.5"/>
    <path d="M 374.998723 252.613038 
L 383.730248 184.662684 
" clip-path="url(#p3b7cf2bcb6)" style="fill: none; stroke: #000000; stroke-width: 0.5"/>
    <path d="M 319.427627 266.334582 
L 348.150926 284.491636 
" clip-path="url(#p3b7cf2bcb6)" style="fill: none; stroke: #000000; stroke-width: 0.5"/>
    <path d="M 319.427627 266.334582 
L 354.927939 96.057195 
" clip-path="url(#p3b7cf2bcb6)" style="fill: none; stroke: #000000; stroke-width: 0.5"/>
    <path d="M 319.427627 266.334582 
L 330.420215 64.564364 
" clip-path="url(#p3b7cf2bcb6)" style="fill: none; stroke: #000000; stroke-width: 0.5"/>
    <path d="M 319.427627 266.334582 
L 380.989806 108.06126 
" clip-path="url(#p3b7cf2bcb6)" style="fill: none; stroke: #000000; stroke-width: 0.5"/>
    <path d="M 319.427627 266.334582 
L 302.417516 199.739827 
" clip-path="url(#p3b7cf2bcb6)" style="fill: none; stroke: #000000; stroke-width: 0.5"/>
    <path d="M 319.427627 266.334582 
L 383.730248 184.662684 
" clip-path="url(#p3b7cf2bcb6)" style="fill: none; stroke: #000000; stroke-width: 0.5"/>
    <path d="M 348.150926 284.491636 
L 354.927939 96.057195 
" clip-path="url(#p3b7cf2bcb6)" style="fill: none; stroke: #000000; stroke-width: 0.5"/>
    <path d="M 348.150926 284.491636 
L 330.420215 64.564364 
" clip-path="url(#p3b7cf2bcb6)" style="fill: none; stroke: #000000; stroke-width: 0.5"/>
    <path d="M 348.150926 284.491636 
L 380.989806 108.06126 
" clip-path="url(#p3b7cf2bcb6)" style="fill: none; stroke: #000000; stroke-width: 0.5"/>
    <path d="M 348.150926 284.491636 
L 302.417516 199.739827 
" clip-path="url(#p3b7cf2bcb6)" style="fill: none; stroke: #000000; stroke-width: 0.5"/>
    <path d="M 348.150926 284.491636 
L 383.730248 184.662684 
" clip-path="url(#p3b7cf2bcb6)" style="fill: none; stroke: #000000; stroke-width: 0.5"/>
    <path d="M 354.927939 96.057195 
L 330.420215 64.564364 
" clip-path="url(#p3b7cf2bcb6)" style="fill: none; stroke: #000000; stroke-width: 0.5"/>
    <path d="M 354.927939 96.057195 
L 380.989806 108.06126 
" clip-path="url(#p3b7cf2bcb6)" style="fill: none; stroke: #000000; stroke-width: 0.5"/>
    <path d="M 354.927939 96.057195 
L 302.417516 199.739827 
" clip-path="url(#p3b7cf2bcb6)" style="fill: none; stroke: #000000; stroke-width: 0.5"/>
    <path d="M 354.927939 96.057195 
L 383.730248 184.662684 
" clip-path="url(#p3b7cf2bcb6)" style="fill: none; stroke: #000000; stroke-width: 0.5"/>
    <path d="M 330.420215 64.564364 
L 380.989806 108.06126 
" clip-path="url(#p3b7cf2bcb6)" style="fill: none; stroke: #000000; stroke-width: 0.5"/>
    <path d="M 330.420215 64.564364 
L 302.417516 199.739827 
" clip-path="url(#p3b7cf2bcb6)" style="fill: none; stroke: #000000; stroke-width: 0.5"/>
    <path d="M 330.420215 64.564364 
L 383.730248 184.662684 
" clip-path="url(#p3b7cf2bcb6)" style="fill: none; stroke: #000000; stroke-width: 0.5"/>
    <path d="M 380.989806 108.06126 
L 302.417516 199.739827 
" clip-path="url(#p3b7cf2bcb6)" style="fill: none; stroke: #000000; stroke-width: 0.5"/>
    <path d="M 380.989806 108.06126 
L 383.730248 184.662684 
" clip-path="url(#p3b7cf2bcb6)" style="fill: none; stroke: #000000; stroke-width: 0.5"/>
    <path d="M 302.417516 199.739827 
L 383.730248 184.662684 
" clip-path="url(#p3b7cf2bcb6)" style="fill: none; stroke: #000000; stroke-width: 0.5"/>
   </g>
   <g id="matplotlib.axis_1">
    <g id="xtick_1"/>
    <g id="xtick_2"/>
    <g id="xtick_3"/>
    <g id="xtick_4"/>
    <g id="xtick_5"/>
    <g id="xtick_6"/>
    <g id="xtick_7"/>
    <g id="xtick_8"/>
   </g>
   <g id="matplotlib.axis_2">
    <g id="ytick_1"/>
    <g id="ytick_2"/>
    <g id="ytick_3"/>
    <g id="ytick_4"/>
    <g id="ytick_5"/>
   </g>
   <g id="PathCollection_1">
    <defs>
     <path id="m6d97e5bcac" d="M 0 8.660254 
C 2.296726 8.660254 4.499694 7.747755 6.123724 6.123724 
C 7.747755 4.499694 8.660254 2.296726 8.660254 0 
C 8.660254 -2.296726 7.747755 -4.499694 6.123724 -6.123724 
C 4.499694 -7.747755 2.296726 -8.660254 0 -8.660254 
C -2.296726 -8.660254 -4.499694 -7.747755 -6.123724 -6.123724 
C -7.747755 -4.499694 -8.660254 -2.296726 -8.660254 0 
C -8.660254 2.296726 -7.747755 4.499694 -6.123724 6.123724 
C -4.499694 7.747755 -2.296726 8.660254 0 8.660254 
z
" style="stroke: #000000"/>
    </defs>
    <g clip-path="url(#p3b7cf2bcb6)">
     <use xlink:href="#m6d97e5bcac" x="107.364074" y="88.855979" style="fill: #ffffff; stroke: #000000"/>
     <use xlink:href="#m6d97e5bcac" x="115.565114" y="189.760356" style="fill: #ffffff; stroke: #000000"/>
     <use xlink:href="#m6d97e5bcac" x="125.138335" y="283.281614" style="fill: #ffffff; stroke: #000000"/>
     <use xlink:href="#m6d97e5bcac" x="88.589752" y="152.419686" style="fill: #ffffff; stroke: #000000"/>
     <use xlink:href="#m6d97e5bcac" x="162.468218" y="106.783636" style="fill: #ffffff; stroke: #000000"/>
     <use xlink:href="#m6d97e5bcac" x="173.004794" y="194.600143" style="fill: #ffffff; stroke: #000000"/>
     <use xlink:href="#m6d97e5bcac" x="95.281675" y="245.534451" style="fill: #ffffff; stroke: #000000"/>
     <use xlink:href="#m6d97e5bcac" x="144.466407" y="170.615025" style="fill: #ffffff; stroke: #000000"/>
     <use xlink:href="#m6d97e5bcac" x="153.992546" y="263.051619" style="fill: #ffffff; stroke: #000000"/>
     <use xlink:href="#m6d97e5bcac" x="135.718256" y="67.813165" style="fill: #ffffff; stroke: #000000"/>
     <use xlink:href="#m6d97e5bcac" x="308.75788" y="121.595097" style="fill: #ffffff; stroke: #000000"/>
     <use xlink:href="#m6d97e5bcac" x="340.062152" y="184.595989" style="fill: #ffffff; stroke: #000000"/>
     <use xlink:href="#m6d97e5bcac" x="374.998723" y="252.613038" style="fill: #ffffff; stroke: #000000"/>
     <use xlink:href="#m6d97e5bcac" x="319.427627" y="266.334582" style="fill: #ffffff; stroke: #000000"/>
     <use xlink:href="#m6d97e5bcac" x="348.150926" y="284.491636" style="fill: #ffffff; stroke: #000000"/>
     <use xlink:href="#m6d97e5bcac" x="354.927939" y="96.057195" style="fill: #ffffff; stroke: #000000"/>
     <use xlink:href="#m6d97e5bcac" x="330.420215" y="64.564364" style="fill: #ffffff; stroke: #000000"/>
     <use xlink:href="#m6d97e5bcac" x="380.989806" y="108.06126" style="fill: #ffffff; stroke: #000000"/>
     <use xlink:href="#m6d97e5bcac" x="302.417516" y="199.739827" style="fill: #ffffff; stroke: #000000"/>
     <use xlink:href="#m6d97e5bcac" x="383.730248" y="184.662684" style="fill: #ffffff; stroke: #000000"/>
    </g>
   </g>
  </g>
 </g>
 <defs>
  <clipPath id="p3b7cf2bcb6">
   <rect x="57.6" y="41.472" width="357.12" height="266.112"/>
  </clipPath>
 </defs>
</svg>
